HIERARCHY
ROOT Hips
{
	OFFSET -3.958830 18.904000 13.208200
	CHANNELS 6 Xposition Yposition Zposition Zrotation Yrotation Xrotation 
	JOINT LHipJoint
	{
		OFFSET 0.000000 0.000000 0.000000
		CHANNELS 3 Zrotation Yrotation Xrotation
		JOINT LeftUpLeg
		{
			OFFSET 1.800000 -1.400000 0.085000
			CHANNELS 3 Zrotation Yrotation Xrotation
			JOINT LeftLeg
			{
				OFFSET 2.215000 -6.000000 0.000000
				CHANNELS 3 Zrotation Yrotation Xrotation
				JOINT LeftFoot
				{
					OFFSET 2.500000 -6.900000 0.000000
					CHANNELS 3 Zrotation Yrotation Xrotation
					JOINT LeftToeBase
					{
						OFFSET 0.200000 -0.500000 1.950000
						CHANNELS 3 Zrotation Yrotation Xrotation
						End Site
						{
							OFFSET 0.000000 0.000000 0.000000
						}
					}
				}
			}
		}
	}
	JOINT RHipJoint
	{
		OFFSET 0.000000 0.000000 0.000000
		CHANNELS 3 Zrotation Yrotation Xrotation
		JOINT RightUpLeg
		{
			OFFSET -1.800000 -1.400000 0.085000
			CHANNELS 3 Zrotation Yrotation Xrotation
			JOINT RightLeg
			{
				OFFSET -2.215000 -6.000000 0.000000
				CHANNELS 3 Zrotation Yrotation Xrotation
				JOINT RightFoot
				{
					OFFSET -2.500000 -6.900000 0.000000
					CHANNELS 3 Zrotation Yrotation Xrotation
					JOINT RightToeBase
					{
						OFFSET -0.200000 -0.500000 1.950000
						CHANNELS 3 Zrotation Yrotation Xrotation
						End Site
						{
							OFFSET 0.000000 0.000000 0.000000
						}
					}
				}
			}
		}
	}
	JOINT LowerBack
	{
		OFFSET 0.000000 0.000000 0.000000
		CHANNELS 3 Zrotation Yrotation Xrotation
		JOINT Spine
		{
			OFFSET -0.087000 1.940000 -0.288900
			CHANNELS 3 Zrotation Yrotation Xrotation
			JOINT Spine1
			{
				OFFSET 0.000000 1.950000 0.060000
				CHANNELS 3 Zrotation Yrotation Xrotation
				JOINT Neck
				{
					OFFSET 0.000000 0.000000 0.000000
					CHANNELS 3 Zrotation Yrotation Xrotation
					JOINT Neck1
					{
						OFFSET 0.000000 1.600000 0.340000
						CHANNELS 3 Zrotation Yrotation Xrotation
						JOINT Head
						{
							OFFSET 0.000000 1.667000 -0.240000
							CHANNELS 3 Zrotation Yrotation Xrotation
							End Site
							{
								OFFSET 0.000000 0.000000 0.000000
							}
						}
					}
				}
				JOINT LeftShoulder
				{
					OFFSET 0.000000 0.000000 0.000000
					CHANNELS 3 Zrotation Yrotation Xrotation
					JOINT LeftArm
					{
						OFFSET 2.700000 1.550000 -0.730000
						CHANNELS 3 Zrotation Yrotation Xrotation
						JOINT LeftForeArm
						{
							OFFSET 5.450000 0.000000 0.000000
							CHANNELS 3 Zrotation Yrotation Xrotation
							JOINT LeftHand
							{
								OFFSET 3.450000 0.000000 0.000000
								CHANNELS 3 Zrotation Yrotation Xrotation
								JOINT LeftHandIndex1
								{
									OFFSET 0.750000 0.000000 0.000000
									CHANNELS 3 Zrotation Yrotation Xrotation
									End Site
									{
										OFFSET 0.000000 0.000000 0.000000
									}
								}
							}
						}
					}
				}
				JOINT RightShoulder
				{
					OFFSET 0.000000 0.000000 0.000000
					CHANNELS 3 Zrotation Yrotation Xrotation
					JOINT RightArm
					{
						OFFSET -2.700000 1.550000 -0.730000
						CHANNELS 3 Zrotation Yrotation Xrotation
						JOINT RightForeArm
						{
							OFFSET -5.450000 0.000000 0.000000
							CHANNELS 3 Zrotation Yrotation Xrotation
							JOINT RightHand
							{
								OFFSET -3.450000 0.000000 0.000000
								CHANNELS 3 Zrotation Yrotation Xrotation
								JOINT RightHandIndex1
								{
									OFFSET -0.750000 0.000000 0.000000
									CHANNELS 3 Zrotation Yrotation Xrotation
									End Site
									{
										OFFSET 0.000000 0.000000 0.000000
									}
								}
							}
						}
					}
				}
			}
		}
	}
}
MOTION
Frames: 12
Frame Time: 0.016667
-0.856670 16.838870 -2.119310 -6.318265 -7.896368 4.966702 -15.402332 13.390278 2.956198 4.841842 -1.354401 -27.884006 1.369461 6.448882 28.873303 -0.173299 4.472705 2.825715 0.216780 0.020230 0.251070 17.914248 -10.648788 3.501129 -2.060600 4.453202 -15.427418 18.800733 -6.802816 15.264830 -0.259723 -3.929284 3.064561 -0.008400 -0.002260 0.050260 -2.606610 -1.546176 -8.043576 2.880789 5.857524 16.088246 10.862087 5.838657 3.841418 1.055151 -2.532289 -14.026695 -4.045656 3.065756 32.817511 -0.625450 3.977430 -7.751850 -26.995515 -16.333720 9.983134 -55.175343 6.549253 -12.478784 -48.392757 -43.869764 12.198088 -3.520048 3.363136 0.311530 -0.017430 -0.009680 0.026100 26.562386 23.935322 8.313093 29.269375 11.471391 -8.612137 2.941428 33.764539 0.152583 2.166937 -1.509582 -0.095100 0.029290 -0.035810 -0.183530 
-0.847180 16.861360 -2.122290 -6.022643 -7.806645 5.488552 -15.393240 13.400108 2.941162 4.213237 -1.433231 -27.308673 1.224484 6.058777 26.887104 -0.199106 4.116799 2.966806 0.222670 0.030220 0.250110 17.916838 -10.664273 3.510411 -2.075338 4.405520 -15.804087 18.441340 -6.541123 14.641709 -0.236160 -3.817312 3.106430 -0.009310 -0.003250 0.055230 -2.624827 -1.538935 -8.013921 2.788939 5.814444 15.951832 10.597500 5.808323 3.638958 1.096912 -2.819846 -14.012880 -4.518829 3.080869 32.166105 -0.873260 3.938460 -7.800700 -27.110411 -16.078737 10.013935 -55.024821 7.118678 -12.633061 -48.856334 -43.960300 12.385480 -3.511828 3.381923 0.298160 -0.016220 -0.008870 0.034170 26.591783 23.896105 8.280073 29.115208 11.437797 -8.574295 2.091841 33.418849 -0.057206 2.181199 -1.515846 -0.082420 0.020130 -0.046250 -0.174380 
-0.821800 16.907970 -2.137130 -5.587053 -7.530473 6.340774 -15.384808 13.396482 2.954189 3.408323 -1.598697 -26.523537 0.600835 5.629771 23.958315 -0.252502 3.678095 3.146424 0.216470 0.026530 0.242840 17.920032 -10.650286 3.520604 -2.175872 4.295647 -16.300947 17.963437 -6.062923 13.175873 -0.192306 -3.613616 3.186856 -0.010420 0.004240 0.049300 -2.649237 -1.574753 -7.997601 2.838580 5.647876 16.007954 10.103940 5.710360 3.365592 1.269132 -3.218590 -14.079048 -5.154597 3.237437 31.180865 -1.095830 3.974660 -8.231070 -26.951615 -15.772995 10.109222 -54.879819 8.020489 -12.923747 -50.164995 -44.214305 12.874932 -3.508997 3.382568 0.295890 -0.013790 -0.014380 0.037170 26.059467 23.916192 8.189446 28.535424 11.525186 -8.339319 0.983422 32.629813 -0.265112 2.196593 -1.488852 -0.088170 0.028950 -0.045440 -0.172030 
-0.790450 16.958400 -2.153830 -4.817022 -7.082352 7.505840 -15.364722 13.288014 2.999060 2.450665 -1.908655 -25.710916 -0.720460 5.360387 20.866739 -0.290960 3.307635 3.307605 0.208230 0.024480 0.235470 17.949533 -10.635211 3.516380 -2.548695 4.207555 -17.176064 17.514701 -5.572248 11.605815 -0.141600 -3.416517 3.258915 -0.007140 0.019970 0.043480 -2.735827 -1.462754 -7.958130 2.713610 5.503540 15.668729 9.369662 5.549854 3.256646 1.288989 -3.315650 -13.960413 -5.220244 3.117267 29.681748 -1.230970 3.818640 -8.449290 -26.138872 -15.256466 10.176717 -54.402374 8.912743 -12.966781 -53.019579 -44.271125 13.967522 -3.522239 3.397662 0.275890 -0.002390 -0.028370 0.039070 25.079771 23.435333 7.845152 28.627208 11.870236 -7.880290 -0.884423 31.338401 -0.698737 2.226391 -1.457294 -0.092250 0.038080 -0.044850 -0.164760 
-0.754800 17.016000 -2.169240 -4.044311 -6.709463 8.860430 -15.319825 13.127971 3.071290 1.584356 -2.253035 -25.010673 -2.376618 5.216536 18.083587 -0.330907 3.079238 3.420020 0.191550 0.005200 0.211720 18.007623 -10.636923 3.503592 -2.961108 4.109261 -18.212715 16.699815 -5.027714 9.975290 -0.076133 -3.206252 3.336278 -0.002630 0.053910 0.038470 -2.899296 -1.249576 -7.930416 3.035880 5.241876 15.322728 8.132525 5.432382 3.045105 1.188830 -3.677149 -13.727291 -5.668185 3.096218 27.800015 -1.007880 3.349160 -8.509310 -25.423666 -14.335205 10.177392 -53.664371 10.376858 -13.109155 -56.292871 -44.599362 15.364629 -3.543093 3.418923 0.257590 0.017450 -0.060070 0.041060 24.378098 22.719516 7.448846 28.851319 12.112884 -7.446858 -2.542763 29.983653 -1.078042 2.243720 -1.435121 -0.109310 0.052680 -0.028640 -0.158610 
-0.710950 17.086920 -2.192710 -3.386413 -5.927674 9.939111 -15.264017 13.010283 3.165232 1.000654 -2.522615 -24.191444 -4.206248 5.125612 15.454514 -0.335498 2.933476 3.501701 0.175650 -0.011180 0.189280 18.063349 -10.623360 3.514268 -3.368058 4.015794 -18.894706 16.013584 -4.523716 8.277978 -0.032992 -3.022253 3.408037 -0.007570 0.071530 0.027640 -3.078200 -1.128103 -7.991285 4.163622 4.583382 15.680412 6.205058 5.240222 2.433332 1.281790 -4.268324 -13.644502 -6.644882 2.855818 26.870507 -0.791820 2.549150 -8.528910 -25.320067 -13.425435 10.176058 -51.951284 12.396200 -13.182179 -60.494675 -44.744841 17.082471 -3.538523 3.436681 0.247780 0.018380 -0.075830 0.045990 23.857682 22.193262 7.240007 28.889534 11.988041 -7.028862 -3.440786 28.563860 -1.222075 2.274656 -1.406346 -0.117590 0.066000 -0.021720 -0.147410 
-0.658490 17.161260 -2.217170 -2.538717 -4.764426 10.614477 -15.213359 12.951824 3.284175 0.386983 -2.772281 -23.246245 -6.183265 5.124854 13.260003 -0.297015 2.865871 3.543277 0.174360 -0.013480 0.180210 18.101937 -10.553637 3.539257 -4.458335 3.873227 -18.895478 16.038709 -4.133957 6.384263 -0.036710 -2.931405 3.443283 -0.024640 0.048840 0.008350 -3.230605 -1.210365 -8.120926 5.666895 3.596211 16.802457 3.912125 4.960811 1.290804 1.490890 -5.421079 -13.727886 -8.833953 2.556918 26.904230 -0.268920 1.359560 -9.293740 -25.170013 -12.283078 9.992810 -49.801783 14.324242 -12.986016 -64.718395 -44.267234 18.595876 -3.485816 3.454514 0.263300 -0.024300 -0.061630 0.049940 23.112034 21.791587 7.339685 29.227763 11.017346 -6.970781 -3.651649 28.132298 -1.193180 2.314003 -1.370038 -0.107770 0.069060 -0.030580 -0.134780 
-0.601280 17.227680 -2.245350 -1.599390 -3.382409 11.295502 -15.144854 12.854705 3.394070 -0.308677 -3.026496 -22.519270 -7.906537 5.046812 11.154177 -0.266360 2.825487 3.573310 0.165230 -0.023540 0.141800 18.167410 -10.489657 3.555598 -5.764224 3.776901 -18.974208 16.184903 -3.860473 4.946023 -0.040102 -2.911676 3.452173 -0.039510 0.048290 -0.005060 -3.452301 -1.224778 -8.210655 7.449233 2.441937 17.775663 1.456265 4.530318 0.226040 1.443005 -6.689729 -13.681927 -11.233718 2.411569 26.595132 1.072240 -0.232110 -9.899910 -24.335287 -10.826179 9.743810 -47.639265 15.977615 -12.440910 -70.018523 -43.641088 20.586419 -3.449618 3.492298 0.272530 -0.055910 -0.063880 0.058280 22.174010 20.969034 7.325964 29.898355 9.817273 -7.149882 -3.664703 28.571327 -1.165199 2.330736 -1.344365 -0.100980 0.072980 -0.023080 -0.113550 
-0.544430 17.274070 -2.274000 -0.631998 -1.667131 12.183129 -15.073014 12.685606 3.486555 -0.986784 -3.249319 -21.864685 -9.761443 4.916999 8.716166 -0.245919 2.828548 3.603338 0.152060 -0.035090 0.110960 18.255806 -10.428648 3.552959 -6.981695 3.606294 -18.887251 16.217382 -3.589471 3.426477 -0.045269 -2.923951 3.456618 -0.043190 0.070180 -0.025290 -3.715157 -1.125595 -8.247784 9.403893 1.279561 18.031087 -1.028582 3.937247 -0.511940 1.296080 -7.624450 -13.289824 -12.970834 2.062491 25.792162 1.992490 -1.678120 -10.504480 -23.227742 -9.064064 9.296684 -45.053496 17.047643 -11.379716 -75.069513 -42.646271 22.498646 -3.440828 3.507025 0.272640 -0.067320 -0.077200 0.068620 21.093605 19.409510 7.038889 30.821926 8.542994 -7.412720 -3.712297 29.569659 -1.187625 2.330282 -1.312268 -0.111690 0.104570 -0.013720 -0.095050 
-0.480120 17.315880 -2.300910 0.246850 1.001762 12.733508 -15.002037 12.564603 3.561407 -1.651230 -3.376019 -21.109109 -11.209159 4.731216 6.532187 -0.209500 2.832218 3.613896 0.161290 -0.033090 0.097330 18.342232 -10.370948 3.537486 -7.998752 3.297784 -17.986841 16.208713 -3.403625 1.971549 -0.078101 -2.997679 3.428592 -0.050770 0.055220 -0.026450 -3.983045 -1.115241 -8.279429 12.151106 -0.415587 18.451422 -3.935704 2.996114 -1.396791 1.321971 -8.565870 -13.108276 -14.859113 1.635639 25.426661 2.783210 -3.142590 -11.067660 -22.568432 -7.578344 8.904469 -41.459691 18.175975 -9.988373 -80.940880 -41.620932 24.892151 -3.406711 3.573696 0.278810 -0.096670 -0.073840 0.075670 20.118767 18.002441 7.010101 31.635072 6.522000 -7.925436 -3.325118 31.102828 -1.093063 2.331203 -1.312112 -0.095520 0.091930 -0.017640 -0.081340 
-0.418770 17.339310 -2.314000 0.527630 2.898047 13.387445 -14.920043 12.428980 3.581067 -1.706463 -3.302499 -20.441844 -12.396791 4.566752 4.551830 -0.182006 2.897063 3.612969 0.149640 -0.050930 0.080420 18.450904 -10.373544 3.498442 -7.977485 3.011788 -17.016505 15.571067 -3.217324 0.795298 -0.088432 -3.034050 3.420094 -0.055840 0.072390 -0.025590 -4.279782 -0.955050 -8.235608 15.471680 -1.763838 17.940131 -6.829898 2.320917 -1.900391 1.290601 -9.210613 -12.696357 -16.062274 1.021464 24.807267 2.712950 -4.344810 -10.712850 -22.386458 -5.983916 8.414813 -37.050007 19.260068 -8.222082 -86.968744 -40.715442 27.743929 -3.415549 3.628745 0.261900 -0.092370 -0.089760 0.078770 19.689572 16.249608 6.834975 32.085577 4.392904 -8.281934 -2.821646 32.219256 -0.947994 2.329587 -1.316396 -0.095650 0.097020 -0.008590 -0.067170 
-0.366550 17.354710 -2.319890 0.982299 4.791509 13.358752 -14.889590 12.413060 3.611027 -1.748820 -3.094620 -19.187938 -13.625691 4.531564 3.068993 -0.143446 3.017929 3.580064 0.157040 -0.045380 0.092880 18.497443 -10.388236 3.411804 -7.750630 2.541639 -15.590281 14.329155 -3.147779 0.146708 -0.113827 -3.028165 3.431341 -0.057590 0.050350 -0.032050 -4.410661 -0.996246 -8.202446 17.749354 -2.952911 18.268124 -8.995354 1.687748 -2.778676 1.411146 -9.617765 -12.328714 -17.069735 0.517307 24.965594 2.420190 -5.037010 -11.558700 -22.507143 -4.335050 7.820814 -31.893965 20.307793 -6.185971 -93.775642 -40.027276 31.574362 -3.399286 3.672275 0.278600 -0.114560 -0.073730 0.074760 19.372976 14.397098 6.674446 32.279853 1.929557 -8.608793 -1.565013 33.084243 -0.545639 2.333543 -1.299124 -0.092160 0.102440 -0.014580 -0.069370 
